<svg xmlns="http://www.w3.org/2000/svg" viewBox="60 50 175 130">
  <defs>
    <linearGradient id="g" x1="72.05" y1="164.6" x2="216.92" y2="64.17" gradientUnits="userSpaceOnUse">
      <stop offset="0.14" stop-color="#ffb23d"/>
      <stop offset="0.33" stop-color="#f05f22"/>
      <stop offset="0.59" stop-color="#ec178d"/>
      <stop offset="0.78" stop-color="#d332ff"/>
      <stop offset="1" stop-color="#9a2fc6"/>
    </linearGradient>
  </defs>
  <path fill="url(#g)" d="M207.65,61.13h-14.8c-.14,0-.26,0-.39,0a5,5,0,0,0-4.33,2.4q-7.83,11-15.57,22c-2.42,3.43-4.79,6.89-7.23,10.3a1.66,1.66,0,0,1-2.91,0q-1.71-2.5-3.46-5-4.71-6.6-9.42-13.17c-3.56-5-6.77-9.51-12.6-11.91a49.26,49.26,0,0,0-17.41-3.53H86.93a5.41,5.41,0,0,0-5.47,5.41v45.13h0v38.46h0v4.11c0,2.25,1.1,6.72,4.52,7.22a107.09,107.09,0,0,0,14,.85c13.7,0,34.63-2.36,49.13-14.87a4.87,4.87,0,0,0,1.17-6.1,4.77,4.77,0,0,0-7.27-1.23c-15.9,13.85-42.95,13-52.34,12.26V77a4.74,4.74,0,0,1,4.72-4.75c5.86,0,12.92,0,18.77,0,4.89,0,9.72,0,14.53,1.43,10.07,3,15.74,13.44,21.63,21.49,3.41,4.67,6.62,9.48,10.07,14.12a4.44,4.44,0,0,0,7.44-.07c3.41-4.59,6.65-9.32,9.92-14,4.83-7,9.67-13.93,14.4-21,.79-1.17,1.56-2.36,2.27-3.58h10.9v85.6l0,.54a4.56,4.56,0,0,0,4.8,4.55,4.73,4.73,0,0,0,4.31-4.81V67.89A6.76,6.76,0,0,0,207.65,61.13Z"/>
  <path fill="url(#g)" d="M189.08,95.83a6,6,0,0,0-2.72,2.1c-4.69,6.45-9.28,13-13.91,19.47-2.35,3.3-4.65,6.62-7,9.87-1.23,1.67-2.06,1.58-3.19-.11q-2-3-4.08-6c-5.42-7.86-10.74-15.79-16.3-23.55-4.76-6.63-11.07-16.9-20.26-17.28-6.33-.26-12,.12-18.71,0a2.83,2.83,0,0,0-2.9,2.84v50.57h0v10.76l4.6.17,1.78,0c6.28,0,25.29-.93,32-11.86a5,5,0,0,0-.93-6.46,4.76,4.76,0,0,0-7.1,1.32c-2.87,4.92-12.94,7-20.85,7.4V89.56c8.4,0,12.07-.18,14.85,2.16,3.34,2.81,6.64,7.22,9.05,10.79q6.6,9.78,13.33,19.45c3.19,4.59,6.44,9.13,9.59,13.75h0s7.21,11.62,15.26.08l3.64-5.28c2.93-4.26,7.8-11.24,10.74-15.49V156.8c0,.06,0,.11,0,.17a3.8,3.8,0,0,0,.06.59,2.59,2.59,0,0,0,.09.4,1.87,1.87,0,0,0,.07.22,4.5,4.5,0,0,0,3.93,3.13l.32,0h.18a3.05,3.05,0,0,0,.6-.06,4.59,4.59,0,0,0,2.45-1.21,3.59,3.59,0,0,0,.95-1.35,4.58,4.58,0,0,0,.44-1.92,1.81,1.81,0,0,0,0-.23c0-.34,0-.68,0-1V100.22C195,96.55,192.51,94.69,189.08,95.83Z"/>
</svg>
